<svg xmlns="http://www.w3.org/2000/svg" width="19" height="18">
    <path fill="#FFF" fill-rule="evenodd" d="M17.675 1.151A2.153 2.153 0 0 0 16.1.493H3.16a2.15 2.15 0 0 0-1.575.658 2.153 2.153 0 0 0-.657 1.577v12.955c0 .612.219 1.138.657 1.576.438.439.963.659 1.575.659H16.1a2.15 2.15 0 0 0 1.575-.659 2.15 2.15 0 0 0 .657-1.576V2.728c0-.613-.219-1.138-.657-1.577zM7.177 6.772c.683-.662 1.505-.992 2.464-.992.967 0 1.792.33 2.476.992.683.662 1.025 1.462 1.025 2.4 0 .937-.342 1.737-1.025 2.398-.684.662-1.509.993-2.476.993a3.415 3.415 0 0 1-2.464-.993c-.684-.661-1.026-1.461-1.026-2.398 0-.938.342-1.738 1.026-2.4zm9.183 8.446c0 .196-.068.36-.204.493a.675.675 0 0 1-.487.199H3.556a.669.669 0 0 1-.492-.199.667.667 0 0 1-.199-.493V7.867h1.598a4.883 4.883 0 0 0-.227 1.486c0 1.452.529 2.69 1.587 3.715 1.057 1.025 2.33 1.537 3.818 1.537a5.44 5.44 0 0 0 2.72-.703 5.282 5.282 0 0 0 1.971-1.912 5.025 5.025 0 0 0 .725-2.637c0-.515-.075-1.01-.226-1.486h1.529v7.351zm0-10.131c0 .22-.075.405-.226.556a.754.754 0 0 1-.556.227h-1.971a.751.751 0 0 1-.555-.227.756.756 0 0 1-.227-.556V3.216a.76.76 0 0 1 .227-.55.745.745 0 0 1 .555-.233h1.971c.22 0 .404.078.556.233a.76.76 0 0 1 .226.55v1.871z"/>
</svg>
