<svg xmlns="http://www.w3.org/2000/svg" width="32" height="30">
    <path fill="#6A4F43" fill-rule="evenodd" d="M15.999 0c8.316 0 15.057 6.633 15.057 14.815 0 8.182-6.741 14.815-15.057 14.815S.941 22.997.941 14.815C.941 6.633 7.683 0 15.999 0z"/>
    <path fill="#FFF" fill-rule="evenodd" d="M22.677 8.429a1.85 1.85 0 0 0-1.342-.549h-11.02c-.521 0-.968.183-1.341.549a1.78 1.78 0 0 0-.56 1.317v10.82c0 .512.187.95.56 1.317.373.366.82.549 1.341.549h11.02a1.85 1.85 0 0 0 1.342-.549 1.78 1.78 0 0 0 .559-1.317V9.746c0-.512-.186-.95-.559-1.317zm-8.941 4.694a2.944 2.944 0 0 1 2.099-.828c.824 0 1.526.276 2.109.828.582.553.873 1.221.873 2.004 0 .784-.291 1.452-.873 2.004-.583.553-1.285.83-2.109.83a2.941 2.941 0 0 1-2.099-.83c-.582-.552-.873-1.22-.873-2.004 0-.783.291-1.451.873-2.004zm7.822 7.054a.547.547 0 0 1-.174.412.578.578 0 0 1-.415.166H10.653a.575.575 0 0 1-.42-.166.553.553 0 0 1-.168-.412v-6.139h1.36a4.03 4.03 0 0 0-.193 1.241c0 1.213.45 2.247 1.351 3.103.901.856 1.985 1.284 3.252 1.284.836 0 1.608-.196 2.316-.588a4.457 4.457 0 0 0 1.679-1.596 4.14 4.14 0 0 0 .618-2.203 4.03 4.03 0 0 0-.193-1.241h1.303v6.139zm0-8.46a.624.624 0 0 1-.194.464.648.648 0 0 1-.472.189h-1.679a.649.649 0 0 1-.473-.189.623.623 0 0 1-.193-.464v-1.564c0-.177.064-.33.193-.459a.637.637 0 0 1 .473-.194h1.679c.186 0 .344.064.472.194a.628.628 0 0 1 .194.459v1.564z"/>
</svg>
