<svg xmlns="http://www.w3.org/2000/svg" width="59" height="74">
    <path fill="#FFF" fill-rule="evenodd" d="M2.812 62.293H0V0h58.194v62.293H2.812zm52.57-59.538H2.812v56.782h52.57V2.755zM43.523 11.62h2.812v32.464l-2.759-2.314h-.052v-.044L11.859 15.178v-3.523l31.665 26.113-.001-26.148zm2.812 39.052L14.671 24.043v26.629h-2.812V18.208l34.476 29.017v3.447zm-41.218 22.2h.019v-5.53h.807V74H4.925L.99 68.47H.971V74H.164v-6.658h1.018l3.935 5.53zm9.377-4.797h-3.465v2.088h3.235v.734h-3.235v2.369h3.638V74h-4.444v-6.658h4.271v.733zm6.085 4.74h.02l2.159-5.473h.854L20.954 74h-.778l-2.601-6.658h.912l2.092 5.473zm8.907-5.473L32.375 74h-.94l-.691-1.636h-3.398L26.645 74h-.912l2.995-6.658h.758zm.95 4.288l-1.343-3.273h-.019l-1.411 3.273h2.773zm10.385 1.242h.02v-5.53h.806V74h-1.018l-3.935-5.53h-.019V74h-.806v-6.658h1.017l3.935 5.53zm9.666-4.797h-2.246V74h-.807v-5.925h-2.246v-.733h5.299v.733zm5.624-.733L59 74h-.941l-.691-1.636h-3.397L53.27 74h-.912l2.995-6.658h.758zm.95 4.288l-1.343-3.273h-.02l-1.41 3.273h2.773z"/>
</svg>
