<svg xmlns="http://www.w3.org/2000/svg" width="31" height="30">
    <path fill="#CD1C1F" fill-rule="evenodd" d="M15.955.345C24.264.345 31 6.978 31 15.16c0 8.182-6.736 14.815-15.045 14.815C7.646 29.975.91 23.342.91 15.16.91 6.978 7.646.345 15.955.345z"/>
    <path fill="#FFF" fill-rule="evenodd" d="M11.923 16.461c.773-1.301-.248-1.586-.408-2.528-.655-3.853 4.668-6.485 7.455-3.793 1.929 1.865.659 7.598-2.451 7.001-2.978-.569 1.459-5.132-.918-6.027-1.932-.729-2.958 2.226-2.042 3.694-.537 2.527-1.694 4.904-1.226 8.071 1.519-1.049 2.031-3.059 2.451-5.155.764.443 1.172.902 2.145.973 3.59.265 5.596-3.412 5.104-6.806-.435-3.008-3.585-4.54-6.944-4.181-2.656.284-5.303 2.328-5.414 5.251-.066 1.785.465 3.124 2.248 3.5z"/>
</svg>
