<svg xmlns="http://www.w3.org/2000/svg" width="16" height="19">
    <path fill="#FFF" fill-rule="evenodd" d="M3.41 10.768c.907-1.558-.292-1.899-.48-3.027C2.162 3.127 8.411-.023 11.684 3.2c2.266 2.233.774 9.096-2.877 8.382-3.498-.68 1.712-6.144-1.079-7.217-2.268-.872-3.473 2.666-2.397 4.424-.632 3.025-1.99 5.872-1.44 9.663 1.783-1.256 2.385-3.662 2.878-6.171.896.529 1.376 1.079 2.519 1.164 4.215.317 6.57-4.085 5.993-8.149-.511-3.601-4.21-5.435-8.154-5.005C4.008.63.9 3.077.77 6.578c-.078 2.136.546 3.74 2.64 4.19z"/>
</svg>
