<svg xmlns="http://www.w3.org/2000/svg" width="18" height="16">
    <path fill="#FFF" fill-rule="evenodd" d="M17.494 1.064a7.415 7.415 0 0 1-2.347.896 3.692 3.692 0 0 0-6.292 3.366 10.49 10.49 0 0 1-7.612-3.857 3.663 3.663 0 0 0-.499 1.855c0 1.281.652 2.411 1.642 3.072a3.683 3.683 0 0 1-1.672-.463v.046a3.696 3.696 0 0 0 2.961 3.62 3.703 3.703 0 0 1-1.668.063 3.7 3.7 0 0 0 3.449 2.564A7.414 7.414 0 0 1 .87 13.805c-.298 0-.592-.017-.881-.05a10.468 10.468 0 0 0 5.661 1.658c6.793 0 10.507-5.625 10.507-10.503l-.012-.479a7.418 7.418 0 0 0 1.845-1.907 7.388 7.388 0 0 1-2.12.581 3.71 3.71 0 0 0 1.624-2.041z"/>
</svg>
