<svg xmlns="http://www.w3.org/2000/svg" width="31" height="30">
    <path fill="#45B7EE" fill-rule="evenodd" d="M15.379.37c8.316 0 15.058 6.633 15.058 14.815C30.437 23.367 23.695 30 15.379 30 7.063 30 .322 23.367.322 15.185.322 7.003 7.063.37 15.379.37z"/>
    <path fill="#FFF" fill-rule="evenodd" d="M23.534 10.027a6.411 6.411 0 0 1-1.998.748 3.166 3.166 0 0 0-2.295-.974c-1.738 0-3.146 1.381-3.146 3.083 0 .241.028.477.082.702a8.994 8.994 0 0 1-6.483-3.221c-.27.454-.425.984-.425 1.549 0 1.07.556 2.014 1.399 2.566a3.19 3.19 0 0 1-1.424-.387v.039c0 1.493 1.084 2.739 2.522 3.023a3.226 3.226 0 0 1-1.421.053 3.143 3.143 0 0 0 2.937 2.141 6.385 6.385 0 0 1-3.905 1.319 6.9 6.9 0 0 1-.751-.042 9.043 9.043 0 0 0 4.822 1.385c5.785 0 8.948-4.698 8.948-8.772l-.011-.4a6.263 6.263 0 0 0 1.572-1.593 6.366 6.366 0 0 1-1.806.485 3.103 3.103 0 0 0 1.383-1.704z"/>
</svg>
