<svg xmlns="http://www.w3.org/2000/svg" width="165" height="165">
    <defs>
        <filter id="a" width="163" height="163" x="1" y="1" filterUnits="userSpaceOnUse">
            <feOffset in="SourceAlpha"/>
            <feGaussianBlur result="blurOut" stdDeviation="7.746"/>
            <feFlood flood-color="#000" result="floodOut"/>
            <feComposite in="floodOut" in2="blurOut" operator="atop"/>
            <feComponentTransfer>
                <feFuncA slope=".69" type="linear"/>
            </feComponentTransfer>
            <feMerge>
                <feMergeNode/>
                <feMergeNode in="SourceGraphic"/>
            </feMerge>
        </filter>
        <filter id="b">
            <feFlood flood-color="#000" flood-opacity="1" result="floodOut"/>
            <feComposite in="floodOut" in2="SourceGraphic" operator="atop" result="compOut"/>
            <feBlend in="compOut" in2="SourceGraphic"/>
        </filter>
    </defs>
    <path fill="#00DF83" fill-rule="evenodd" stroke="#FFF" stroke-width="2" d="M82 62c11.046 0 20 8.954 20 20s-8.954 20-20 20-20-8.954-20-20 8.954-20 20-20z" filter="url(#b)" opacity=".6"/>
    <path fill="#FFF" fill-rule="evenodd" d="M78.751 87.824a.481.481 0 0 1-.475-.479V76.493a.474.474 0 1 1 .713-.415l9.334 5.427a.478.478 0 0 1 0 .828l-9.334 5.427a.472.472 0 0 1-.238.064zm.475-10.503v9.195l7.909-4.597-7.909-4.598z"/>
</svg>
